<?xml version="1.0" encoding="UTF-8"?>
<svg version="1.1" xmlns="http://www.w3.org/2000/svg" width="232" height="209">
<path d="M0 0 C19.14 0 38.28 0 58 0 C58 0.66 58 1.32 58 2 C58.58265625 1.93039063 59.1653125 1.86078125 59.765625 1.7890625 C67.78902172 1.25921555 73.13944975 4.11704927 80 8 C80.72574219 8.34546875 81.45148438 8.6909375 82.19921875 9.046875 C84.95893814 10.50755077 86.82959665 12.77665998 89 15 C89.825 15.66 90.65 16.32 91.5 17 C96.16402583 20.73122067 100.02630335 25.08504205 103.8125 29.6875 C104.60269531 30.64011719 105.39289063 31.59273437 106.20703125 32.57421875 C108 35 108 35 108 37 C108.66 37.33 109.32 37.66 110 38 C111.03515625 39.63671875 111.03515625 39.63671875 112.0625 41.6875 C112.57490234 42.68330078 112.57490234 42.68330078 113.09765625 43.69921875 C115.36197006 49.47272885 115.28127219 55.75253229 115.5625 61.875 C115.60568359 62.75414062 115.64886719 63.63328125 115.69335938 64.5390625 C115.79869339 66.69255797 115.89977649 68.84626064 116 71 C115.34 71 114.68 71 114 71 C114.21011719 71.72703125 114.42023438 72.4540625 114.63671875 73.203125 C115.07521065 76.57904115 114.45061061 77.81004783 112.8125 80.75 C110.59708883 84.85466459 108.67454275 88.97525607 106.89453125 93.28515625 C106 95 106 95 104 96 C102.79954166 98.1008021 101.95314863 100.1405541 101.1875 102.4375 C99.6773937 105.69615044 97.62137425 107.56586677 95 110 C91.76743758 113.01284462 91.76743758 113.01284462 90 117 C84.7680741 121.83975428 79.0546857 126.23627646 73 130 C70.49990289 125.5777083 70.66823345 121.78712393 70.6875 116.8125 C70.67138672 115.99974609 70.65527344 115.18699219 70.63867188 114.34960938 C70.6313449 105.13960372 73.95246366 97.70895181 77.9375 89.5625 C84.69052544 75.45936874 88.81694041 63.7748663 86 48 C85.34 47.67 84.68 47.34 84 47 C82.98308736 45.00854609 81.98357352 43.00812926 81 41 C80.34 40.34 79.68 39.68 79 39 C78.443125 38.05125 77.88625 37.1025 77.3125 36.125 C74.52119911 32.35297177 72.28482964 30.89656394 68 29 C51.4220246 27.15800273 34.67503555 27.40670818 18 27 C17.67 60.99 17.34 94.98 17 130 C12.88472648 127.94236324 11.10220443 126.21059564 8.5 122.625 C4.9906803 117.88828277 1.18688259 113.41574684 -2.6328125 108.9296875 C-7.82789326 102.50013211 -10.12195706 98.06731041 -10.12939453 89.81420898 C-10.13254669 88.80643906 -10.13569885 87.79866913 -10.13894653 86.76036072 C-10.1369223 85.68315262 -10.13489807 84.60594452 -10.1328125 83.49609375 C-10.13376923 82.38065689 -10.13472595 81.26522003 -10.13571167 80.11598206 C-10.13639123 77.76164697 -10.13455257 75.40730999 -10.13037109 73.05297852 C-10.12501469 69.44738568 -10.1303263 65.84191712 -10.13671875 62.23632812 C-10.13605803 59.94791639 -10.13477699 57.65950474 -10.1328125 55.37109375 C-10.13483673 54.29186142 -10.13686096 53.21262909 -10.13894653 52.10069275 C-10.13579437 51.09607498 -10.13264221 50.09145721 -10.12939453 49.05639648 C-10.12859894 48.17435043 -10.12780334 47.29230438 -10.12698364 46.38352966 C-10.00572201 44.10740428 -9.57417935 42.19592053 -9 40 C-8.84861775 37.09331688 -8.74356343 34.20541364 -8.68359375 31.296875 C-8.66281265 30.45908508 -8.64203156 29.62129517 -8.62062073 28.75811768 C-8.5553745 26.08882644 -8.49635642 23.41943902 -8.4375 20.75 C-8.39429106 18.93749016 -8.35067601 17.12498995 -8.30664062 15.3125 C-8.19971871 10.87509791 -8.09838134 6.43759932 -8 2 C-5.36 2 -2.72 2 0 2 C0 1.34 0 0.68 0 0 Z " fill="#FDFDFD" transform="translate(71,27)"/>
<path d="M0 0 C2.01508098 -0.00962772 4.02910744 -0.04059823 6.04394531 -0.07226562 C14.10398434 -0.10470039 19.88553555 -0.05017885 26.29394531 5.17773438 C27.96087014 7.29344665 28.38376946 8.65355111 28.91894531 11.24023438 C29.57894531 11.57023437 30.23894531 11.90023437 30.91894531 12.24023438 C31.52508441 16.22588483 31.66459266 20.21298407 31.91894531 24.24023438 C25.64894531 24.57023437 19.37894531 24.90023437 12.91894531 25.24023438 C12.90959961 27.6876001 12.90025391 30.13496582 12.890625 32.65649414 C12.85681264 40.75513715 12.80123998 48.85352649 12.73504257 56.95196629 C12.69558366 61.86065036 12.66338738 66.76915546 12.64794922 71.67797852 C12.63277222 76.41794585 12.59830808 81.15742112 12.55063629 85.89716911 C12.53583326 87.70275526 12.52790492 89.50841167 12.52706146 91.3140583 C12.52468677 93.84930612 12.4975681 96.3831996 12.46484375 98.91821289 C12.46987411 99.65980652 12.47490448 100.40140015 12.48008728 101.16546631 C12.32732861 108.84668954 8.76849315 113.65322422 3.66894531 119.17773438 C2.96253906 119.94988281 2.25613281 120.72203125 1.52832031 121.51757812 C0.99722656 122.08605469 0.46613281 122.65453125 -0.08105469 123.24023438 C-4.24038636 119.84033124 -7.76954311 116.49789212 -11.08105469 112.24023438 C-12.07105469 111.58023438 -13.06105469 110.92023438 -14.08105469 110.24023438 C-14.37348718 107.75178976 -14.46998996 105.51203514 -14.4375 103.02197266 C-14.43954437 102.27661758 -14.44158875 101.53126251 -14.44369507 100.76332092 C-14.44672 98.27881892 -14.42813298 95.7949712 -14.40917969 93.31054688 C-14.40611673 91.56444461 -14.4042447 89.8183399 -14.40350342 88.07223511 C-14.39888514 84.38823241 -14.38443272 80.70444639 -14.36230469 77.02050781 C-14.33455669 72.38589393 -14.32323763 67.75145257 -14.31848907 63.11676407 C-14.29957187 46.2963711 -14.19686393 29.48183249 -13.62792969 12.66992188 C-13.58968079 11.50486115 -13.55143188 10.33980042 -13.51202393 9.13943481 C-13.47131775 8.09745941 -13.43061157 7.05548401 -13.38867188 5.98193359 C-13.35360535 5.08223846 -13.31853882 4.18254333 -13.28240967 3.25558472 C-12.74198781 -2.15346634 -4.15394009 0.01201139 0 0 Z " fill="#FDFDFD" transform="translate(115.0810546875,66.759765625)"/>
<path d="M0 0 C12.87 0 25.74 0 39 0 C39 7.92 39 15.84 39 24 C35.04 24 31.08 24 27 24 C25.494375 24.12375 23.98875 24.2475 22.4375 24.375 C18.14289655 23.88217665 16.29188953 21.40087313 13.70336914 18.21533203 C11.84211687 15.77847663 10.05585628 13.29650992 8.29882812 10.78369141 C6.99945773 8.99925529 5.61472366 7.33759426 4.171875 5.66796875 C2 3 2 3 2 1 C1.34 0.67 0.68 0.34 0 0 Z " fill="#FDFDFD" transform="translate(14,68)"/>
<path d="M0 0 C1.0528418 0.07831055 1.0528418 0.07831055 2.12695312 0.15820312 C3.85588054 0.28757865 5.58425355 0.42432531 7.3125 0.5625 C4.48562127 6.3074471 1.49227688 10.80587909 -3.234375 15.15234375 C-4.80402251 16.52018894 -4.80402251 16.52018894 -5.6875 18.5625 C-6.3475 18.5625 -7.0075 18.5625 -7.6875 18.5625 C-8.36715584 16.23225139 -9.03287814 13.89980757 -9.6875 11.5625 C-9.88988281 10.85609375 -10.09226563 10.1496875 -10.30078125 9.421875 C-11.8021789 3.9065367 -11.8021789 3.9065367 -10.6875 0.5625 C-6.99441024 -0.66852992 -3.80699288 -0.30925152 0 0 Z " fill="#FAFAFA" transform="translate(204.6875,67.4375)"/>
</svg>
